<svg width="180" height="32" viewBox="0 0 180 32" fill="none" xmlns="http://www.w3.org/2000/svg">
<rect width="32" height="32" rx="8" fill="#FF6334"/>
<rect x="8" y="7.11111" width="3.1746" height="17.7778" fill="white"/>
<path d="M19.028 23.3015H16.8874C14.1417 23.3015 11.9153 21.0751 11.9153 18.328C11.9153 15.5808 14.1417 13.3544 16.8874 13.3544C19.6332 13.3544 21.8596 15.5808 21.8596 18.328C21.8596 19.7335 21.2788 21.0005 20.3401 21.9069L18.9512 23.248L19.028 23.3015Z" stroke="white" stroke-width="3.1746"/>
<circle cx="15.6191" cy="18.3282" r="0.42328" fill="white"/>
<circle cx="16.889" cy="18.3282" r="0.42328" fill="white"/>
<circle cx="18.1589" cy="18.3282" r="0.42328" fill="white"/>
<path d="M45.592 12.504C45.976 11.88 46.528 11.376 47.248 10.992C47.968 10.608 48.792 10.416 49.72 10.416C50.824 10.416 51.824 10.696 52.72 11.256C53.616 11.816 54.32 12.616 54.832 13.656C55.36 14.696 55.624 15.904 55.624 17.28C55.624 18.656 55.36 19.872 54.832 20.928C54.32 21.968 53.616 22.776 52.72 23.352C51.824 23.912 50.824 24.192 49.72 24.192C48.776 24.192 47.952 24.008 47.248 23.64C46.544 23.256 45.992 22.752 45.592 22.128V24H41.488V6.24H45.592V12.504ZM51.448 17.28C51.448 16.256 51.16 15.456 50.584 14.88C50.024 14.288 49.328 13.992 48.496 13.992C47.68 13.992 46.984 14.288 46.408 14.88C45.848 15.472 45.568 16.28 45.568 17.304C45.568 18.328 45.848 19.136 46.408 19.728C46.984 20.32 47.68 20.616 48.496 20.616C49.312 20.616 50.008 20.32 50.584 19.728C51.16 19.12 51.448 18.304 51.448 17.28ZM71.0011 10.608V24H66.8971V22.176C66.4811 22.768 65.9131 23.248 65.1931 23.616C64.4891 23.968 63.7051 24.144 62.8411 24.144C61.8171 24.144 60.9131 23.92 60.1291 23.472C59.3451 23.008 58.7371 22.344 58.3051 21.48C57.8731 20.616 57.6571 19.6 57.6571 18.432V10.608H61.7371V17.88C61.7371 18.776 61.9691 19.472 62.4331 19.968C62.8971 20.464 63.5211 20.712 64.3051 20.712C65.1051 20.712 65.7371 20.464 66.2011 19.968C66.6651 19.472 66.8971 18.776 66.8971 17.88V10.608H71.0011ZM78.0529 12.504C78.4369 11.88 78.9889 11.376 79.7089 10.992C80.4289 10.608 81.2529 10.416 82.1809 10.416C83.2849 10.416 84.2849 10.696 85.1809 11.256C86.0769 11.816 86.7809 12.616 87.2929 13.656C87.8209 14.696 88.0849 15.904 88.0849 17.28C88.0849 18.656 87.8209 19.872 87.2929 20.928C86.7809 21.968 86.0769 22.776 85.1809 23.352C84.2849 23.912 83.2849 24.192 82.1809 24.192C81.2369 24.192 80.4129 24.008 79.7089 23.64C79.0049 23.256 78.4529 22.752 78.0529 22.128V24H73.9489V6.24H78.0529V12.504ZM83.9089 17.28C83.9089 16.256 83.6209 15.456 83.0449 14.88C82.4849 14.288 81.7889 13.992 80.9569 13.992C80.1409 13.992 79.4449 14.288 78.8689 14.88C78.3089 15.472 78.0289 16.28 78.0289 17.304C78.0289 18.328 78.3089 19.136 78.8689 19.728C79.4449 20.32 80.1409 20.616 80.9569 20.616C81.7729 20.616 82.4689 20.32 83.0449 19.728C83.6209 19.12 83.9089 18.304 83.9089 17.28ZM94.342 12.504C94.726 11.88 95.278 11.376 95.998 10.992C96.718 10.608 97.542 10.416 98.47 10.416C99.574 10.416 100.574 10.696 101.47 11.256C102.366 11.816 103.07 12.616 103.582 13.656C104.11 14.696 104.374 15.904 104.374 17.28C104.374 18.656 104.11 19.872 103.582 20.928C103.07 21.968 102.366 22.776 101.47 23.352C100.574 23.912 99.574 24.192 98.47 24.192C97.526 24.192 96.702 24.008 95.998 23.64C95.294 23.256 94.742 22.752 94.342 22.128V24H90.238V6.24H94.342V12.504ZM100.198 17.28C100.198 16.256 99.91 15.456 99.334 14.88C98.774 14.288 98.078 13.992 97.246 13.992C96.43 13.992 95.734 14.288 95.158 14.88C94.598 15.472 94.318 16.28 94.318 17.304C94.318 18.328 94.598 19.136 95.158 19.728C95.734 20.32 96.43 20.616 97.246 20.616C98.062 20.616 98.758 20.32 99.334 19.728C99.91 19.12 100.198 18.304 100.198 17.28ZM110.631 6.24V24H106.527V6.24H110.631ZM126.229 17.088C126.229 17.472 126.205 17.872 126.157 18.288H116.869C116.933 19.12 117.197 19.76 117.661 20.208C118.141 20.64 118.725 20.856 119.413 20.856C120.437 20.856 121.149 20.424 121.549 19.56H125.917C125.693 20.44 125.285 21.232 124.693 21.936C124.117 22.64 123.389 23.192 122.509 23.592C121.629 23.992 120.645 24.192 119.557 24.192C118.245 24.192 117.077 23.912 116.053 23.352C115.029 22.792 114.229 21.992 113.653 20.952C113.077 19.912 112.789 18.696 112.789 17.304C112.789 15.912 113.069 14.696 113.629 13.656C114.205 12.616 115.005 11.816 116.029 11.256C117.053 10.696 118.229 10.416 119.557 10.416C120.853 10.416 122.005 10.688 123.013 11.232C124.021 11.776 124.805 12.552 125.365 13.56C125.941 14.568 126.229 15.744 126.229 17.088ZM122.029 16.008C122.029 15.304 121.789 14.744 121.309 14.328C120.829 13.912 120.229 13.704 119.509 13.704C118.821 13.704 118.237 13.904 117.757 14.304C117.293 14.704 117.005 15.272 116.893 16.008H122.029ZM140.514 7.152V10.44H136.05V24H131.946V10.44H127.482V7.152H140.514ZM141.758 17.28C141.758 15.904 142.014 14.696 142.526 13.656C143.054 12.616 143.766 11.816 144.662 11.256C145.558 10.696 146.558 10.416 147.662 10.416C148.606 10.416 149.43 10.608 150.134 10.992C150.854 11.376 151.406 11.88 151.79 12.504V10.608H155.894V24H151.79V22.104C151.39 22.728 150.83 23.232 150.11 23.616C149.406 24 148.582 24.192 147.638 24.192C146.55 24.192 145.558 23.912 144.662 23.352C143.766 22.776 143.054 21.968 142.526 20.928C142.014 19.872 141.758 18.656 141.758 17.28ZM151.79 17.304C151.79 16.28 151.502 15.472 150.926 14.88C150.366 14.288 149.678 13.992 148.862 13.992C148.046 13.992 147.35 14.288 146.774 14.88C146.214 15.456 145.934 16.256 145.934 17.28C145.934 18.304 146.214 19.12 146.774 19.728C147.35 20.32 148.046 20.616 148.862 20.616C149.678 20.616 150.366 20.32 150.926 19.728C151.502 19.136 151.79 18.328 151.79 17.304ZM162.967 6.24V24H158.863V6.24H162.967ZM174.125 24L170.045 18.384V24H165.941V6.24H170.045V16.056L174.101 10.608H179.165L173.597 17.328L179.213 24H174.125Z" fill="#141414"/>
</svg>
